<?xml version="1.0" encoding="UTF-8"?>
<svg id="Capa_2" data-name="Capa 2" xmlns="http://www.w3.org/2000/svg" viewBox="0 0 400.5 361.75">
  <defs>
    <style>
      .cls-1 {
        fill: #f9f9f9;
        stroke-width: 0px;
      }
    </style>
  </defs>
  <g id="Capa_1-2" data-name="Capa 1">
    <g>
      <g>
        <path class="cls-1" d="M7.16,298.58c-2.01,0-3.71.69-5.09,2.07-1.38,1.38-2.07,3.11-2.07,5.18s.69,3.74,2.07,5.18c1.38,1.44,3.08,2.16,5.09,2.16,2.13,0,3.84-.72,5.13-2.16,1.29-1.44,1.94-3.16,1.94-5.18s-.65-3.8-1.94-5.18c-1.29-1.38-3.01-2.07-5.13-2.07Z"/>
        <path class="cls-1" d="M5.26,360.8h8.54v-41.94H.52v37.2c0,2.62,2.12,4.74,4.74,4.74Z"/>
        <path class="cls-1" d="M61.18,347.9c-2.3.95-5,1.42-8.11,1.42-2.65,0-5.06-.45-7.25-1.34-2.19-.89-4.09-2.19-5.7-3.88-1.61-1.7-2.85-3.71-3.71-6.04-.86-2.33-1.29-4.93-1.29-7.81s.43-5.32,1.29-7.68c.86-2.36,2.1-4.37,3.71-6.04,1.61-1.67,3.51-2.95,5.7-3.84,2.19-.89,4.6-1.34,7.25-1.34,2.99,0,5.62.49,7.9,1.47,2.27.98,4.19,2.33,5.74,4.06l9.15-9.23c-2.82-2.7-6.11-4.83-9.88-6.39-3.77-1.55-8.07-2.33-12.9-2.33s-8.83.79-12.69,2.37c-3.86,1.58-7.24,3.78-10.14,6.6-2.91,2.82-5.16,6.14-6.77,9.97-1.61,3.83-2.42,7.95-2.42,12.38s.81,8.56,2.42,12.38c1.61,3.83,3.87,7.18,6.77,10.05,2.9,2.88,6.3,5.11,10.18,6.69,3.88,1.58,8.1,2.37,12.64,2.37,5.01,0,9.41-.76,13.2-2.29,3.8-1.52,7.13-3.67,10.01-6.43l-9.23-9.23c-1.61,1.78-3.57,3.15-5.87,4.1Z"/>
        <path class="cls-1" d="M110.55,322.33c-1.13-1.07-2.44-1.97-3.93-2.69-2.27-1.09-4.82-1.64-7.64-1.64-3.86,0-7.29.94-10.31,2.8-3.02,1.87-5.41,4.46-7.16,7.77-1.76,3.31-2.63,7.06-2.63,11.26s.88,7.93,2.63,11.18c1.75,3.25,4.16,5.84,7.21,7.77,3.05,1.93,6.47,2.89,10.27,2.89,2.88,0,5.45-.55,7.72-1.64,1.46-.7,2.74-1.58,3.84-2.62v3.4h13.03v-41.94h-13.03v3.47ZM101.75,349.67c-1.78,0-3.38-.42-4.79-1.25-1.41-.83-2.53-2-3.37-3.49-.83-1.5-1.25-3.19-1.25-5.09s.42-3.59,1.25-5.09c.83-1.5,1.96-2.66,3.37-3.5,1.41-.83,3.01-1.25,4.79-1.25s3.48.42,4.92,1.25c1.44.83,2.53,1.99,3.28,3.45.75,1.47,1.12,3.15,1.12,5.05,0,2.93-.85,5.32-2.55,7.16-1.7,1.84-3.96,2.76-6.77,2.76Z"/>
        <path class="cls-1" d="M166.12,320.15c-2.42-1.44-5.15-2.16-8.2-2.16-3.22,0-6.11.68-8.67,2.03-1.17.62-2.21,1.35-3.15,2.2v-3.37h-13.29v41.94h13.29v-23.9c0-1.44.32-2.7.95-3.8.63-1.09,1.5-1.94,2.59-2.55,1.09-.6,2.33-.91,3.71-.91,2.07,0,3.8.68,5.18,2.03,1.38,1.35,2.07,3.09,2.07,5.22v23.9h13.29v-26.84c0-2.88-.69-5.54-2.07-7.98-1.38-2.44-3.28-4.39-5.7-5.83Z"/>
        <path class="cls-1" d="M207.24,348.8c-1.35.58-2.89.86-4.62.86s-3.42-.42-4.92-1.25c-1.5-.83-2.66-2-3.49-3.49-.83-1.5-1.25-3.22-1.25-5.18s.42-3.58,1.25-5.05c.83-1.47,1.98-2.62,3.45-3.45,1.47-.83,3.12-1.25,4.96-1.25,1.67,0,3.15.26,4.44.78,1.29.52,2.43,1.32,3.41,2.42l8.54-8.63c-2.13-2.19-4.56-3.84-7.29-4.96-2.73-1.12-5.77-1.68-9.1-1.68-4.37,0-8.31.95-11.82,2.85-3.51,1.9-6.27,4.5-8.28,7.81-2.01,3.31-3.02,7.06-3.02,11.26s.99,7.88,2.98,11.22c1.98,3.34,4.73,5.95,8.24,7.85,3.51,1.9,7.45,2.85,11.82,2.85,3.45,0,6.54-.59,9.28-1.77,2.73-1.18,5.22-2.92,7.46-5.22l-8.54-8.46c-.98,1.09-2.14,1.93-3.5,2.5Z"/>
        <path class="cls-1" d="M258.2,320.02c-2.47-1.35-5.35-2.03-8.63-2.03s-5.98.68-8.46,2.03c-1.05.57-1.99,1.25-2.85,2.02v-23.9h-13.29v62.65h13.29v-23.9c0-1.44.32-2.7.95-3.8.63-1.09,1.5-1.94,2.59-2.55,1.09-.6,2.33-.91,3.71-.91,2.07,0,3.8.68,5.18,2.03,1.38,1.35,2.07,3.09,2.07,5.22v23.9h13.29v-26.84c0-3.16-.69-5.94-2.07-8.33-1.38-2.39-3.31-4.26-5.78-5.61Z"/>
        <path class="cls-1" d="M305.15,320.59c-3.17-1.78-6.85-2.68-11.05-2.68s-8.08.95-11.48,2.85c-3.4,1.9-6.07,4.5-8.03,7.81-1.96,3.31-2.93,7.03-2.93,11.18s1.01,8.06,3.02,11.39c2.01,3.34,4.77,5.94,8.28,7.81,3.51,1.87,7.54,2.8,12.08,2.8,3.57,0,6.82-.59,9.75-1.77,2.93-1.18,5.44-3.01,7.51-5.48l-7.34-7.25c-1.27,1.44-2.73,2.52-4.4,3.24-1.67.72-3.51,1.08-5.52,1.08-2.24,0-4.19-.47-5.83-1.42-1.64-.95-2.91-2.32-3.8-4.1-.28-.55-.51-1.14-.7-1.76l29.99-.14c.29-1.04.48-1.97.56-2.81.09-.83.13-1.65.13-2.46,0-4.08-.92-7.71-2.76-10.87-1.84-3.16-4.34-5.64-7.51-7.42ZM288.88,329.47c1.52-.98,3.32-1.47,5.39-1.47,1.9,0,3.52.43,4.88,1.29,1.35.86,2.37,2.09,3.06,3.67.27.63.49,1.32.67,2.06l-18.16.1c.17-.56.38-1.1.62-1.6.83-1.73,2.01-3.08,3.54-4.06Z"/>
        <path class="cls-1" d="M351.01,318.9c-1.53-.6-3.29-.91-5.31-.91-4.55,0-8.13,1.35-10.74,4.06-.02.02-.03.03-.04.05v-3.24h-13.29v41.94h13.29v-22.96c0-2.7.65-4.73,1.94-6.08,1.29-1.35,3.06-2.03,5.31-2.03,1.09,0,2.07.17,2.93.52.86.34,1.55.81,2.07,1.38l7.85-10.01c-1.15-1.21-2.49-2.11-4.01-2.72Z"/>
        <path class="cls-1" d="M397.48,328.57c-2.01-3.31-4.76-5.91-8.24-7.81-3.48-1.9-7.38-2.85-11.69-2.85s-8.37.96-11.82,2.89c-3.45,1.93-6.17,4.53-8.15,7.81-1.98,3.28-2.98,6.96-2.98,11.05s1.01,7.88,3.02,11.22c2.01,3.34,4.75,5.98,8.2,7.94,3.45,1.96,7.36,2.93,11.74,2.93s8.28-.98,11.74-2.93c3.45-1.96,6.18-4.59,8.2-7.9,2.01-3.31,3.02-7.06,3.02-11.26s-1.01-7.78-3.02-11.09ZM385.79,344.96c-.78,1.53-1.89,2.69-3.32,3.5-1.44.81-3.08,1.21-4.92,1.21s-3.48-.4-4.92-1.21c-1.44-.8-2.56-1.97-3.37-3.5-.81-1.52-1.21-3.26-1.21-5.22,0-1.84.4-3.51,1.21-5,.8-1.5,1.93-2.66,3.37-3.5,1.44-.83,3.08-1.25,4.92-1.25s3.47.42,4.88,1.25c1.41.83,2.52,1.99,3.32,3.45.8,1.47,1.21,3.15,1.21,5.05s-.39,3.7-1.17,5.22Z"/>
      </g>
      <g>
        <g>
          <path class="cls-1" d="M214.13,158.24l-10.44,36.49c-1.66,5.79,2.69,11.55,8.71,11.55h69.77c15.65,0,26.95,14.99,22.64,30.04l-.23.82c-2.91,10.17-12.21,17.18-22.79,17.18h-136.22c-7.74,0-13.32-7.41-11.19-14.85l9.51-33.19,13.75-48.04,13.76-48.04,11.05-38.56c1.61-5.61,6.73-9.47,12.57-9.47h129.26c15.24,0,26.25,14.6,22.05,29.25l-.18.61c-3.08,10.76-12.92,18.17-24.11,18.17h-82.83c-6.68,0-12.56,4.43-14.4,10.86l-10.65,37.18Z"/>
          <path class="cls-1" d="M151.19,132.81l-95.55,106.41c-5.23,5.82-1.1,15.09,6.73,15.09h25.24s40.97-42.38,40.97-42.38l22.61-79.12Z"/>
        </g>
        <ellipse class="cls-1" cx="224.27" cy="24.1" rx="27.37" ry="24.1"/>
      </g>
    </g>
  </g>
</svg>