<?xml version="1.0" encoding="UTF-8"?>
<svg id="Capa_2" data-name="Capa 2" xmlns="http://www.w3.org/2000/svg" viewBox="0 0 842.77 153.31">
  <defs>
    <style>
      .cls-1 {
        fill: #f9f9f9;
        stroke-width: 0px;
      }
    </style>
  </defs>
  <g id="Capa_1-2" data-name="Capa 1">
    <g>
      <g>
        <path class="cls-1" d="M260.28,47.96c-2.98,0-5.5,1.02-7.54,3.07s-3.07,4.6-3.07,7.67,1.02,5.54,3.07,7.67c2.04,2.13,4.56,3.2,7.54,3.2,3.15,0,5.69-1.06,7.6-3.2,1.92-2.13,2.88-4.68,2.88-7.67s-.96-5.62-2.88-7.67c-1.92-2.04-4.45-3.07-7.6-3.07Z"/>
        <path class="cls-1" d="M257.46,140.1h12.65v-62.11h-19.68v55.08c0,3.88,3.15,7.03,7.03,7.03Z"/>
        <path class="cls-1" d="M340.27,121c-3.41,1.41-7.41,2.11-12.01,2.11-3.92,0-7.5-.66-10.73-1.98-3.24-1.32-6.05-3.24-8.43-5.75-2.39-2.51-4.22-5.5-5.5-8.95s-1.92-7.3-1.92-11.57.64-7.88,1.92-11.37c1.28-3.49,3.11-6.47,5.5-8.95,2.38-2.47,5.2-4.37,8.43-5.69,3.24-1.32,6.82-1.98,10.73-1.98,4.43,0,8.33.73,11.69,2.17,3.36,1.45,6.2,3.45,8.5,6.01l13.55-13.67c-4.18-4-9.05-7.16-14.63-9.46-5.58-2.3-11.95-3.45-19.11-3.45s-13.08,1.17-18.79,3.51c-5.71,2.34-10.72,5.6-15.02,9.78-4.3,4.18-7.65,9.1-10.03,14.76-2.39,5.67-3.58,11.78-3.58,18.34s1.19,12.67,3.58,18.34c2.38,5.67,5.73,10.63,10.03,14.89,4.3,4.26,9.33,7.56,15.08,9.9,5.75,2.34,11.99,3.51,18.72,3.51,7.41,0,13.93-1.13,19.55-3.39,5.62-2.26,10.56-5.43,14.82-9.52l-13.67-13.67c-2.39,2.64-5.28,4.66-8.69,6.07Z"/>
        <path class="cls-1" d="M413.38,83.13c-1.67-1.59-3.61-2.92-5.81-3.98-3.37-1.62-7.14-2.43-11.31-2.43-5.71,0-10.8,1.39-15.27,4.15-4.47,2.77-8.01,6.6-10.61,11.5-2.6,4.9-3.9,10.46-3.9,16.68s1.3,11.74,3.9,16.55c2.6,4.81,6.15,8.65,10.67,11.5,4.51,2.86,9.58,4.28,15.21,4.28,4.26,0,8.07-.81,11.44-2.43,2.16-1.04,4.05-2.34,5.69-3.88v5.03h19.3v-62.11h-19.3v5.13ZM400.34,123.62c-2.64,0-5.01-.62-7.09-1.85-2.09-1.23-3.75-2.96-4.98-5.18-1.24-2.21-1.85-4.73-1.85-7.54s.62-5.32,1.85-7.54c1.23-2.21,2.9-3.94,4.98-5.18,2.09-1.23,4.45-1.85,7.09-1.85s5.15.62,7.28,1.85c2.13,1.24,3.75,2.94,4.86,5.11,1.11,2.17,1.66,4.66,1.66,7.48,0,4.35-1.26,7.88-3.77,10.61-2.51,2.73-5.86,4.09-10.03,4.09Z"/>
        <path class="cls-1" d="M495.68,79.91c-3.58-2.13-7.63-3.19-12.14-3.19-4.77,0-9.05,1-12.84,3-1.73.91-3.27,2-4.66,3.26v-4.98h-19.68v62.11h19.68v-35.4c0-2.13.47-4,1.41-5.62.94-1.62,2.21-2.88,3.83-3.77,1.62-.9,3.45-1.34,5.49-1.34,3.07,0,5.62,1,7.67,3,2.04,2,3.07,4.58,3.07,7.73v35.4h19.68v-39.75c0-4.26-1.02-8.2-3.07-11.82-2.04-3.62-4.86-6.5-8.43-8.63Z"/>
        <path class="cls-1" d="M556.57,122.34c-2,.85-4.28,1.28-6.84,1.28s-5.07-.62-7.28-1.85c-2.22-1.23-3.94-2.96-5.18-5.18-1.24-2.21-1.85-4.77-1.85-7.67s.62-5.3,1.85-7.48c1.23-2.17,2.94-3.88,5.11-5.11,2.17-1.23,4.62-1.85,7.35-1.85,2.47,0,4.66.38,6.58,1.15,1.92.77,3.6,1.96,5.05,3.58l12.65-12.78c-3.15-3.24-6.75-5.69-10.8-7.35-4.05-1.66-8.54-2.49-13.48-2.49-6.48,0-12.31,1.41-17.51,4.22-5.2,2.81-9.29,6.67-12.27,11.57-2.98,4.9-4.47,10.46-4.47,16.68s1.47,11.67,4.41,16.61c2.94,4.94,7.01,8.82,12.2,11.63,5.2,2.81,11.03,4.22,17.51,4.22,5.11,0,9.69-.87,13.74-2.62,4.05-1.74,7.73-4.32,11.05-7.73l-12.65-12.52c-1.45,1.62-3.18,2.85-5.18,3.71Z"/>
        <path class="cls-1" d="M632.03,79.72c-3.66-2-7.92-3-12.78-3s-8.86,1-12.52,3c-1.55.85-2.95,1.85-4.22,3v-35.39h-19.68v92.78h19.68v-35.4c0-2.13.47-4,1.41-5.62.94-1.62,2.21-2.88,3.83-3.77,1.62-.9,3.45-1.34,5.49-1.34,3.07,0,5.62,1,7.67,3,2.04,2,3.07,4.58,3.07,7.73v35.4h19.68v-39.75c0-4.68-1.02-8.8-3.07-12.33-2.04-3.53-4.9-6.3-8.56-8.31Z"/>
        <path class="cls-1" d="M701.55,80.55c-4.69-2.64-10.14-3.96-16.36-3.96s-11.97,1.41-17,4.22c-5.03,2.81-8.99,6.67-11.89,11.57-2.9,4.9-4.35,10.42-4.35,16.55s1.49,11.93,4.47,16.87c2.98,4.94,7.07,8.8,12.27,11.57,5.2,2.77,11.16,4.15,17.89,4.15,5.28,0,10.1-.87,14.44-2.62,4.35-1.74,8.05-4.45,11.12-8.11l-10.86-10.74c-1.87,2.13-4.05,3.73-6.52,4.79-2.47,1.07-5.2,1.6-8.18,1.6-3.32,0-6.2-.7-8.63-2.11-2.43-1.41-4.3-3.43-5.62-6.07-.41-.82-.75-1.69-1.03-2.6l44.42-.21c.43-1.53.7-2.92.83-4.15.13-1.23.19-2.45.19-3.64,0-6.05-1.36-11.42-4.09-16.1-2.73-4.68-6.43-8.35-11.12-10.99ZM677.46,93.71c2.26-1.45,4.92-2.17,7.99-2.17,2.81,0,5.22.64,7.22,1.92,2,1.28,3.51,3.09,4.54,5.43.4.93.73,1.95.99,3.06l-26.89.15c.26-.83.56-1.63.92-2.38,1.23-2.56,2.98-4.56,5.24-6.01Z"/>
        <path class="cls-1" d="M769.48,78.06c-2.26-.89-4.88-1.34-7.86-1.34-6.73,0-12.04,2-15.91,6.01-.02.02-.04.05-.06.07v-4.8h-19.68v62.11h19.68v-33.99c0-4,.96-7.01,2.88-9.01,1.92-2,4.54-3,7.86-3,1.62,0,3.07.26,4.34.77,1.28.51,2.3,1.19,3.07,2.04l11.63-14.82c-1.71-1.79-3.69-3.13-5.94-4.03Z"/>
        <path class="cls-1" d="M838.29,92.37c-2.98-4.9-7.05-8.75-12.2-11.57-5.16-2.81-10.93-4.22-17.32-4.22s-12.4,1.43-17.51,4.28c-5.11,2.86-9.14,6.71-12.08,11.57-2.94,4.86-4.41,10.31-4.41,16.36s1.49,11.67,4.47,16.61c2.98,4.94,7.03,8.86,12.14,11.76,5.11,2.9,10.91,4.34,17.38,4.34s12.27-1.45,17.38-4.34c5.11-2.9,9.16-6.79,12.14-11.69,2.98-4.9,4.47-10.46,4.47-16.68s-1.49-11.52-4.47-16.42ZM820.98,116.65c-1.15,2.26-2.79,3.98-4.92,5.18-2.13,1.19-4.56,1.79-7.28,1.79s-5.16-.6-7.28-1.79c-2.13-1.19-3.79-2.92-4.98-5.18-1.19-2.26-1.79-4.83-1.79-7.73,0-2.73.6-5.2,1.79-7.41,1.19-2.21,2.85-3.94,4.98-5.18,2.13-1.23,4.56-1.85,7.28-1.85s5.13.62,7.22,1.85c2.09,1.24,3.73,2.94,4.92,5.11,1.19,2.17,1.79,4.66,1.79,7.48s-.57,5.48-1.73,7.73Z"/>
      </g>
      <g>
        <g>
          <path class="cls-1" d="M96.95,95.39l-6.3,22c-1,3.49,1.62,6.96,5.25,6.96h42.06c9.44,0,16.25,9.04,13.65,18.11l-.14.49c-1.76,6.13-7.36,10.36-13.74,10.36H55.61c-4.66,0-8.03-4.47-6.75-8.95l5.73-20.01,8.29-28.96,8.3-28.96,6.66-23.25c.97-3.38,4.06-5.71,7.58-5.71h77.92c9.19,0,15.82,8.8,13.29,17.63l-.11.37c-1.86,6.49-7.79,10.96-14.54,10.96h-49.93c-4.03,0-7.57,2.67-8.68,6.54l-6.42,22.41Z"/>
          <path class="cls-1" d="M59.01,80.06L1.41,144.21c-3.15,3.51-.66,9.1,4.06,9.1h15.22l24.7-25.55,13.63-47.7Z"/>
        </g>
        <ellipse class="cls-1" cx="103.07" cy="14.53" rx="16.5" ry="14.53"/>
      </g>
    </g>
  </g>
</svg>